solid SHAPR3D_SOLID
facet normal 0.000000e+00 1.000000e+00 0.000000e+00
outer loop
vertex 1.974000e+02 1.125000e+01 1.248500e+00
vertex 1.974000e+02 1.125000e+01 0.000000e+00
vertex 1.964000e+02 1.125000e+01 0.000000e+00
endloop
endfacet
facet normal 0.000000e+00 1.000000e+00 0.000000e+00
outer loop
vertex 1.964000e+02 1.125000e+01 0.000000e+00
vertex 1.964000e+02 1.125000e+01 1.248500e+00
vertex 1.974000e+02 1.125000e+01 1.248500e+00
endloop
endfacet
facet normal 1.000000e+00 0.000000e+00 0.000000e+00
outer loop
vertex 1.964000e+02 1.125000e+01 1.248500e+00
vertex 1.964000e+02 1.125000e+01 0.000000e+00
vertex 1.964000e+02 1.200000e+01 0.000000e+00
endloop
endfacet
facet normal 1.000000e+00 0.000000e+00 -0.000000e+00
outer loop
vertex 1.964000e+02 1.200000e+01 0.000000e+00
vertex 1.964000e+02 1.200000e+01 1.248500e+00
vertex 1.964000e+02 1.125000e+01 1.248500e+00
endloop
endfacet
facet normal -3.412571e-16 1.000000e+00 0.000000e+00
outer loop
vertex 1.964000e+02 1.200000e+01 1.248500e+00
vertex 1.964000e+02 1.200000e+01 0.000000e+00
vertex 1.354000e+02 1.200000e+01 0.000000e+00
endloop
endfacet
facet normal -3.412571e-16 1.000000e+00 0.000000e+00
outer loop
vertex 1.354000e+02 1.200000e+01 0.000000e+00
vertex 1.354000e+02 1.200000e+01 1.248500e+00
vertex 1.964000e+02 1.200000e+01 1.248500e+00
endloop
endfacet
facet normal -1.000000e+00 0.000000e+00 -0.000000e+00
outer loop
vertex 1.354000e+02 1.200000e+01 1.248500e+00
vertex 1.354000e+02 1.200000e+01 0.000000e+00
vertex 1.354000e+02 1.125000e+01 0.000000e+00
endloop
endfacet
facet normal -1.000000e+00 0.000000e+00 0.000000e+00
outer loop
vertex 1.354000e+02 1.125000e+01 0.000000e+00
vertex 1.354000e+02 1.125000e+01 1.248500e+00
vertex 1.354000e+02 1.200000e+01 1.248500e+00
endloop
endfacet
facet normal 0.000000e+00 1.000000e+00 0.000000e+00
outer loop
vertex 1.354000e+02 1.125000e+01 1.248500e+00
vertex 1.354000e+02 1.125000e+01 0.000000e+00
vertex 1.344000e+02 1.125000e+01 0.000000e+00
endloop
endfacet
facet normal 0.000000e+00 1.000000e+00 0.000000e+00
outer loop
vertex 1.344000e+02 1.125000e+01 0.000000e+00
vertex 1.344000e+02 1.125000e+01 1.248500e+00
vertex 1.354000e+02 1.125000e+01 1.248500e+00
endloop
endfacet
facet normal 0.000000e+00 0.000000e+00 1.000000e+00
outer loop
vertex 1.344000e+02 1.285879e-16 1.248500e+00
vertex 1.964000e+02 1.125000e+01 1.248500e+00
vertex 1.354000e+02 1.125000e+01 1.248500e+00
endloop
endfacet
facet normal 0.000000e+00 -0.000000e+00 1.000000e+00
outer loop
vertex 1.964000e+02 1.125000e+01 1.248500e+00
vertex 1.964000e+02 1.200000e+01 1.248500e+00
vertex 1.354000e+02 1.200000e+01 1.248500e+00
endloop
endfacet
facet normal 0.000000e+00 0.000000e+00 1.000000e+00
outer loop
vertex 1.354000e+02 1.200000e+01 1.248500e+00
vertex 1.354000e+02 1.125000e+01 1.248500e+00
vertex 1.964000e+02 1.125000e+01 1.248500e+00
endloop
endfacet
facet normal 0.000000e+00 -0.000000e+00 1.000000e+00
outer loop
vertex 1.974000e+02 1.170150e-14 1.248500e+00
vertex 1.974000e+02 1.125000e+01 1.248500e+00
vertex 1.964000e+02 1.125000e+01 1.248500e+00
endloop
endfacet
facet normal 0.000000e+00 0.000000e+00 1.000000e+00
outer loop
vertex 1.964000e+02 1.125000e+01 1.248500e+00
vertex 1.344000e+02 1.285879e-16 1.248500e+00
vertex 1.974000e+02 1.170150e-14 1.248500e+00
endloop
endfacet
facet normal 0.000000e+00 0.000000e+00 1.000000e+00
outer loop
vertex 1.354000e+02 1.125000e+01 1.248500e+00
vertex 1.344000e+02 1.125000e+01 1.248500e+00
vertex 1.344000e+02 1.285879e-16 1.248500e+00
endloop
endfacet
facet normal 0.000000e+00 0.000000e+00 -1.000000e+00
outer loop
vertex 1.974000e+02 1.170150e-14 0.000000e+00
vertex 1.354000e+02 1.125000e+01 0.000000e+00
vertex 1.964000e+02 1.125000e+01 0.000000e+00
endloop
endfacet
facet normal -0.000000e+00 0.000000e+00 -1.000000e+00
outer loop
vertex 1.964000e+02 1.125000e+01 0.000000e+00
vertex 1.354000e+02 1.125000e+01 0.000000e+00
vertex 1.354000e+02 1.200000e+01 0.000000e+00
endloop
endfacet
facet normal 0.000000e+00 0.000000e+00 -1.000000e+00
outer loop
vertex 1.354000e+02 1.200000e+01 0.000000e+00
vertex 1.964000e+02 1.200000e+01 0.000000e+00
vertex 1.964000e+02 1.125000e+01 0.000000e+00
endloop
endfacet
facet normal 0.000000e+00 0.000000e+00 -1.000000e+00
outer loop
vertex 1.344000e+02 1.285879e-16 0.000000e+00
vertex 1.344000e+02 1.125000e+01 0.000000e+00
vertex 1.354000e+02 1.125000e+01 0.000000e+00
endloop
endfacet
facet normal 0.000000e+00 -0.000000e+00 -1.000000e+00
outer loop
vertex 1.354000e+02 1.125000e+01 0.000000e+00
vertex 1.974000e+02 1.170150e-14 0.000000e+00
vertex 1.344000e+02 1.285879e-16 0.000000e+00
endloop
endfacet
facet normal 0.000000e+00 0.000000e+00 -1.000000e+00
outer loop
vertex 1.964000e+02 1.125000e+01 0.000000e+00
vertex 1.974000e+02 1.125000e+01 0.000000e+00
vertex 1.974000e+02 1.170150e-14 0.000000e+00
endloop
endfacet
facet normal -1.000000e+00 0.000000e+00 -0.000000e+00
outer loop
vertex 1.344000e+02 1.125000e+01 1.248500e+00
vertex 1.344000e+02 1.125000e+01 0.000000e+00
vertex 1.344000e+02 1.285879e-16 0.000000e+00
endloop
endfacet
facet normal -1.000000e+00 0.000000e+00 0.000000e+00
outer loop
vertex 1.344000e+02 1.285879e-16 0.000000e+00
vertex 1.344000e+02 1.285879e-16 1.248500e+00
vertex 1.344000e+02 1.125000e+01 1.248500e+00
endloop
endfacet
facet normal 1.836970e-16 -1.000000e+00 0.000000e+00
outer loop
vertex 1.344000e+02 1.285879e-16 1.248500e+00
vertex 1.344000e+02 1.285879e-16 0.000000e+00
vertex 1.974000e+02 1.170150e-14 0.000000e+00
endloop
endfacet
facet normal 1.836970e-16 -1.000000e+00 0.000000e+00
outer loop
vertex 1.974000e+02 1.170150e-14 0.000000e+00
vertex 1.974000e+02 1.170150e-14 1.248500e+00
vertex 1.344000e+02 1.285879e-16 1.248500e+00
endloop
endfacet
facet normal 1.000000e+00 0.000000e+00 0.000000e+00
outer loop
vertex 1.974000e+02 1.170150e-14 1.248500e+00
vertex 1.974000e+02 1.170150e-14 0.000000e+00
vertex 1.974000e+02 1.125000e+01 0.000000e+00
endloop
endfacet
facet normal 1.000000e+00 0.000000e+00 -0.000000e+00
outer loop
vertex 1.974000e+02 1.125000e+01 0.000000e+00
vertex 1.974000e+02 1.125000e+01 1.248500e+00
vertex 1.974000e+02 1.170150e-14 1.248500e+00
endloop
endfacet
endsolid SHAPR3D_SOLID
