solid SHAPR3D_SOLID
facet normal 2.620170e-17 -1.000000e+00 0.000000e+00
outer loop
vertex 1.354000e+02 1.233191e-16 1.998500e+00
vertex 1.354000e+02 1.233191e-16 1.248500e+00
vertex 1.964000e+02 1.721623e-15 1.248500e+00
endloop
endfacet
facet normal 2.620170e-17 -1.000000e+00 0.000000e+00
outer loop
vertex 1.964000e+02 1.721623e-15 1.248500e+00
vertex 1.964000e+02 1.721623e-15 1.998500e+00
vertex 1.354000e+02 1.233191e-16 1.998500e+00
endloop
endfacet
facet normal 1.000000e+00 0.000000e+00 0.000000e+00
outer loop
vertex 1.964000e+02 1.721623e-15 1.998500e+00
vertex 1.964000e+02 1.721623e-15 1.248500e+00
vertex 1.964000e+02 1.200000e+01 1.248500e+00
endloop
endfacet
facet normal 1.000000e+00 0.000000e+00 -0.000000e+00
outer loop
vertex 1.964000e+02 1.200000e+01 1.248500e+00
vertex 1.964000e+02 1.200000e+01 1.998500e+00
vertex 1.964000e+02 1.721623e-15 1.998500e+00
endloop
endfacet
facet normal 0.000000e+00 1.000000e+00 0.000000e+00
outer loop
vertex 1.964000e+02 1.200000e+01 1.998500e+00
vertex 1.964000e+02 1.200000e+01 1.248500e+00
vertex 1.354000e+02 1.200000e+01 1.248500e+00
endloop
endfacet
facet normal 0.000000e+00 1.000000e+00 0.000000e+00
outer loop
vertex 1.354000e+02 1.200000e+01 1.248500e+00
vertex 1.354000e+02 1.200000e+01 1.998500e+00
vertex 1.964000e+02 1.200000e+01 1.998500e+00
endloop
endfacet
facet normal -1.000000e+00 0.000000e+00 -0.000000e+00
outer loop
vertex 1.354000e+02 1.200000e+01 1.998500e+00
vertex 1.354000e+02 1.200000e+01 1.248500e+00
vertex 1.354000e+02 1.233191e-16 1.248500e+00
endloop
endfacet
facet normal -1.000000e+00 0.000000e+00 0.000000e+00
outer loop
vertex 1.354000e+02 1.233191e-16 1.248500e+00
vertex 1.354000e+02 1.233191e-16 1.998500e+00
vertex 1.354000e+02 1.200000e+01 1.998500e+00
endloop
endfacet
facet normal 0.000000e+00 -0.000000e+00 1.000000e+00
outer loop
vertex 1.964000e+02 1.721623e-15 1.998500e+00
vertex 1.964000e+02 1.200000e+01 1.998500e+00
vertex 1.959000e+02 1.150000e+01 1.998500e+00
endloop
endfacet
facet normal 0.000000e+00 0.000000e+00 1.000000e+00
outer loop
vertex 1.964000e+02 1.200000e+01 1.998500e+00
vertex 1.354000e+02 1.200000e+01 1.998500e+00
vertex 1.359000e+02 1.150000e+01 1.998500e+00
endloop
endfacet
facet normal 0.000000e+00 0.000000e+00 1.000000e+00
outer loop
vertex 1.359000e+02 1.150000e+01 1.998500e+00
vertex 1.959000e+02 1.150000e+01 1.998500e+00
vertex 1.964000e+02 1.200000e+01 1.998500e+00
endloop
endfacet
facet normal 0.000000e+00 0.000000e+00 1.000000e+00
outer loop
vertex 1.354000e+02 1.233191e-16 1.998500e+00
vertex 1.359000e+02 5.000000e-01 1.998500e+00
vertex 1.359000e+02 1.150000e+01 1.998500e+00
endloop
endfacet
facet normal 0.000000e+00 0.000000e+00 1.000000e+00
outer loop
vertex 1.359000e+02 1.150000e+01 1.998500e+00
vertex 1.354000e+02 1.200000e+01 1.998500e+00
vertex 1.354000e+02 1.233191e-16 1.998500e+00
endloop
endfacet
facet normal 0.000000e+00 0.000000e+00 1.000000e+00
outer loop
vertex 1.354000e+02 1.233191e-16 1.998500e+00
vertex 1.964000e+02 1.721623e-15 1.998500e+00
vertex 1.959000e+02 5.000000e-01 1.998500e+00
endloop
endfacet
facet normal 0.000000e+00 0.000000e+00 1.000000e+00
outer loop
vertex 1.959000e+02 5.000000e-01 1.998500e+00
vertex 1.359000e+02 5.000000e-01 1.998500e+00
vertex 1.354000e+02 1.233191e-16 1.998500e+00
endloop
endfacet
facet normal 0.000000e+00 0.000000e+00 1.000000e+00
outer loop
vertex 1.959000e+02 1.150000e+01 1.998500e+00
vertex 1.959000e+02 5.000000e-01 1.998500e+00
vertex 1.964000e+02 1.721623e-15 1.998500e+00
endloop
endfacet
facet normal 0.000000e+00 0.000000e+00 -1.000000e+00
outer loop
vertex 1.964000e+02 1.721623e-15 1.248500e+00
vertex 1.959000e+02 5.000000e-01 1.248500e+00
vertex 1.959000e+02 1.150000e+01 1.248500e+00
endloop
endfacet
facet normal 0.000000e+00 0.000000e+00 -1.000000e+00
outer loop
vertex 1.354000e+02 1.233191e-16 1.248500e+00
vertex 1.359000e+02 5.000000e-01 1.248500e+00
vertex 1.959000e+02 5.000000e-01 1.248500e+00
endloop
endfacet
facet normal 0.000000e+00 -0.000000e+00 -1.000000e+00
outer loop
vertex 1.959000e+02 5.000000e-01 1.248500e+00
vertex 1.964000e+02 1.721623e-15 1.248500e+00
vertex 1.354000e+02 1.233191e-16 1.248500e+00
endloop
endfacet
facet normal 0.000000e+00 0.000000e+00 -1.000000e+00
outer loop
vertex 1.354000e+02 1.233191e-16 1.248500e+00
vertex 1.354000e+02 1.200000e+01 1.248500e+00
vertex 1.359000e+02 1.150000e+01 1.248500e+00
endloop
endfacet
facet normal 0.000000e+00 0.000000e+00 -1.000000e+00
outer loop
vertex 1.354000e+02 1.200000e+01 1.248500e+00
vertex 1.964000e+02 1.200000e+01 1.248500e+00
vertex 1.959000e+02 1.150000e+01 1.248500e+00
endloop
endfacet
facet normal 0.000000e+00 -0.000000e+00 -1.000000e+00
outer loop
vertex 1.359000e+02 1.150000e+01 1.248500e+00
vertex 1.359000e+02 5.000000e-01 1.248500e+00
vertex 1.354000e+02 1.233191e-16 1.248500e+00
endloop
endfacet
facet normal 0.000000e+00 0.000000e+00 -1.000000e+00
outer loop
vertex 1.959000e+02 1.150000e+01 1.248500e+00
vertex 1.964000e+02 1.200000e+01 1.248500e+00
vertex 1.964000e+02 1.721623e-15 1.248500e+00
endloop
endfacet
facet normal 0.000000e+00 0.000000e+00 -1.000000e+00
outer loop
vertex 1.959000e+02 1.150000e+01 1.248500e+00
vertex 1.359000e+02 1.150000e+01 1.248500e+00
vertex 1.354000e+02 1.200000e+01 1.248500e+00
endloop
endfacet
facet normal -1.000000e+00 0.000000e+00 -0.000000e+00
outer loop
vertex 1.959000e+02 1.150000e+01 1.998500e+00
vertex 1.959000e+02 1.150000e+01 1.248500e+00
vertex 1.959000e+02 5.000000e-01 1.248500e+00
endloop
endfacet
facet normal -1.000000e+00 0.000000e+00 0.000000e+00
outer loop
vertex 1.959000e+02 5.000000e-01 1.248500e+00
vertex 1.959000e+02 5.000000e-01 1.998500e+00
vertex 1.959000e+02 1.150000e+01 1.998500e+00
endloop
endfacet
facet normal 0.000000e+00 1.000000e+00 0.000000e+00
outer loop
vertex 1.959000e+02 5.000000e-01 1.998500e+00
vertex 1.959000e+02 5.000000e-01 1.248500e+00
vertex 1.359000e+02 5.000000e-01 1.248500e+00
endloop
endfacet
facet normal 0.000000e+00 1.000000e+00 0.000000e+00
outer loop
vertex 1.359000e+02 5.000000e-01 1.248500e+00
vertex 1.359000e+02 5.000000e-01 1.998500e+00
vertex 1.959000e+02 5.000000e-01 1.998500e+00
endloop
endfacet
facet normal 1.000000e+00 0.000000e+00 0.000000e+00
outer loop
vertex 1.359000e+02 5.000000e-01 1.998500e+00
vertex 1.359000e+02 5.000000e-01 1.248500e+00
vertex 1.359000e+02 1.150000e+01 1.248500e+00
endloop
endfacet
facet normal 1.000000e+00 0.000000e+00 -0.000000e+00
outer loop
vertex 1.359000e+02 1.150000e+01 1.248500e+00
vertex 1.359000e+02 1.150000e+01 1.998500e+00
vertex 1.359000e+02 5.000000e-01 1.998500e+00
endloop
endfacet
facet normal 0.000000e+00 -1.000000e+00 0.000000e+00
outer loop
vertex 1.359000e+02 1.150000e+01 1.998500e+00
vertex 1.359000e+02 1.150000e+01 1.248500e+00
vertex 1.959000e+02 1.150000e+01 1.248500e+00
endloop
endfacet
facet normal 0.000000e+00 -1.000000e+00 0.000000e+00
outer loop
vertex 1.959000e+02 1.150000e+01 1.248500e+00
vertex 1.959000e+02 1.150000e+01 1.998500e+00
vertex 1.359000e+02 1.150000e+01 1.998500e+00
endloop
endfacet
endsolid SHAPR3D_SOLID
